<?xml version="1.0" encoding="UTF-8" standalone="no"?>
<!-- Created with Inkscape (http://www.inkscape.org/) -->

<svg
   xmlns:dc="http://purl.org/dc/elements/1.1/"
   xmlns:cc="http://creativecommons.org/ns#"
   xmlns:rdf="http://www.w3.org/1999/02/22-rdf-syntax-ns#"
   xmlns:svg="http://www.w3.org/2000/svg"
   xmlns="http://www.w3.org/2000/svg"
   xmlns:sodipodi="http://sodipodi.sourceforge.net/DTD/sodipodi-0.dtd"
   xmlns:inkscape="http://www.inkscape.org/namespaces/inkscape"
   width="186.05513mm"
   height="186.24748mm"
   viewBox="0 0 186.05513 186.24748"
   version="1.1"
   id="svg8"
   inkscape:version="0.92.3 (2405546, 2018-03-11)"
   sodipodi:docname="tzmlogo.svg">
  <defs
     id="defs2" />
  <sodipodi:namedview
     id="base"
     pagecolor="#ffffff"
     bordercolor="#666666"
     borderopacity="1.0"
     inkscape:pageopacity="0"
     inkscape:pageshadow="2"
     inkscape:zoom="0.35"
     inkscape:cx="392.22312"
     inkscape:cy="148.67489"
     inkscape:document-units="mm"
     inkscape:current-layer="layer1"
     showgrid="false"
     fit-margin-top="0"
     fit-margin-left="0"
     fit-margin-right="0"
     fit-margin-bottom="0"
     inkscape:window-width="1920"
     inkscape:window-height="1080"
     inkscape:window-x="0"
     inkscape:window-y="0"
     inkscape:window-maximized="0" />
  <metadata
     id="metadata5">
    <rdf:RDF>
      <cc:Work
         rdf:about="">
        <dc:format>image/svg+xml</dc:format>
        <dc:type
           rdf:resource="http://purl.org/dc/dcmitype/StillImage" />
        <dc:title></dc:title>
      </cc:Work>
    </rdf:RDF>
  </metadata>
  <g
     inkscape:label="Layer 1"
     inkscape:groupmode="layer"
     id="layer1"
     transform="translate(-2.0576319,-1.9227503)">
    <path
       style="fill:#000000;stroke-width:0.11487683"
       d="M 91.805992,188.07234 C 82.849936,187.73037 73.586245,186.05718 65.326882,183.28979 54.667575,179.71826 44.837116,174.20747 35.975853,166.83608 31.084448,162.76709 26.052677,157.67494 22.290104,152.98612 15.454985,144.46837 10.229742,134.83429 6.8694049,124.5541 1.6332649,108.53531 0.6949939,93.245752 3.9351869,76.739702 6.8569559,61.855752 13.072255,48.477232 22.415525,36.960522 26.3538,32.106112 31.543282,26.874032 36.46603,22.794672 48.18564,13.082922 62.247767,6.5145124 77.67614,3.5454684 c 15.839372,-3.04814202 32.77146,-1.780962 48.42058,3.623744 20.87014,7.2078796 39.89228,23.4133296 50.74613,43.2318996 6.09504,11.12921 9.8047,23.79432 11.00285,37.56472 0.39907,4.5865 0.34613,11.34841 -0.12682,16.197638 -0.95119,9.75263 -3.49952,19.26251 -7.70799,28.7646 -0.97875,2.20988 -4.48041,9.19974 -4.74699,9.47573 -0.29011,0.30035 -0.57782,0.20312 -1.82787,-0.6177 -0.57955,-0.38055 -2.9513,-1.89839 -5.27056,-3.37297 -2.31926,-1.47458 -5.94861,-3.78295 -8.06521,-5.12972 -2.11661,-1.34677 -5.76107,-3.6608 -8.09882,-5.1423 -2.33774,-1.4815 -4.99516,-3.16604 -5.90538,-3.74342 -0.91021,-0.57738 -1.76317,-1.19573 -1.89547,-1.37411 l -0.24053,-0.32431 -0.03,-15.15534 c -0.0247,-12.510708 -0.0566,-15.155338 -0.18259,-15.155338 -0.0839,0 -0.21741,0.14216 -0.29659,0.31591 -0.2973,0.65237 -5.96671,13.691928 -7.71741,17.749908 -2.12017,4.91442 -2.20382,5.08795 -2.53861,5.26712 -0.17341,0.0928 -1.10619,0.13655 -2.95986,0.13878 -3.11749,0.004 -3.13801,-0.002 -3.60798,-0.9958 -0.15394,-0.32554 -1.18286,-2.68551 -2.28649,-5.24439 -1.10363,-2.55889 -3.20193,-7.40008 -4.66286,-10.758218 -1.46094,-3.35814 -2.65625,-6.15456 -2.65625,-6.21426 0,-0.0597 -0.097,-0.19635 -0.21556,-0.30364 -0.1974,-0.17865 -0.22159,-0.17935 -0.28719,-0.008 -0.0394,0.10267 -0.0716,6.91708 -0.0716,15.143138 0,13.35085 -0.0192,14.98388 -0.17882,15.21178 -0.17798,0.25411 -0.19503,0.25532 -3.59565,0.25532 -2.50435,0 -3.45363,-0.0368 -3.55467,-0.13785 -0.10635,-0.10636 -0.13785,-5.73618 -0.13785,-24.641078 0,-24.35007 0.001,-24.50467 0.22975,-24.73299 0.21865,-0.21864 0.38292,-0.22975 3.3977,-0.22975 h 3.16795 l 0.31069,0.31591 c 0.19978,0.20314 1.14482,2.22275 2.64741,5.65769 1.2852,2.93797 4.32729,9.86504 6.76018,15.39349 2.4329,5.528448 4.50727,10.245048 4.60971,10.481338 0.10245,0.23629 0.21282,0.43015 0.2453,0.43079 0.0884,0.002 0.20634,-0.2695 7.1337,-16.414578 3.53505,-8.23889 6.51183,-15.12279 6.61507,-15.29756 0.10324,-0.17476 0.31082,-0.37385 0.46131,-0.44242 0.17546,-0.0799 1.4026,-0.12466 3.4208,-0.12466 3.12199,0 3.14863,0.002 3.32603,0.25531 0.1604,0.229 0.17883,2.60932 0.17883,23.09595 0,24.431338 -0.0293,23.144468 0.53871,23.658518 0.11969,0.10832 2.02476,1.32665 4.23349,2.7074 2.20873,1.38075 4.92612,3.08839 6.03865,3.79476 1.11253,0.70638 2.12997,1.28431 2.26099,1.28431 0.32632,0 0.5653,-0.38594 1.31596,-2.12522 3.46886,-8.03727 5.3417,-15.37932 6.13904,-24.0667 0.28888,-3.147518 0.2883,-11.207258 -0.001,-14.187288 -1.4248,-14.67512 -6.39089,-27.30729 -15.42269,-39.23085 -8.82374,-11.64886 -19.88567,-20.1111 -32.96079,-25.21457 -6.80447,-2.65592 -13.53429,-4.31541 -20.79271,-5.12722 -2.68144,-0.29991 -8.749108,-0.4153 -11.832308,-0.22503 -17.197322,1.06128 -32.102264,6.87997 -44.93556,17.54224 -14.21694,11.81183 -23.278339,26.88305 -26.624748,44.28317 -1.163543,6.05001 -1.634162,11.50206 -1.526034,17.67894 0.139002,7.940698 1.253572,14.531608 3.700748,21.884038 1.136689,3.41513 2.077006,5.72034 3.628872,8.89624 2.269263,4.64405 4.674842,8.58675 7.769779,12.73449 10.503452,14.07644 23.519537,23.38159 39.319459,28.10934 9.537298,2.85381 21.369834,3.98656 31.131612,2.98029 14.52618,-1.49741 27.53415,-6.92951 39.68995,-16.57444 2.68796,-2.13276 4.62636,-3.8715 7.14467,-6.40875 1.40228,-1.41284 2.62821,-2.5688 2.7243,-2.5688 0.25234,0 12.88738,8.44327 12.9744,8.67003 0.0401,0.10453 -0.005,0.33989 -0.0993,0.52304 -0.21552,0.41678 -5.49826,5.74544 -7.3506,7.41449 -10.76577,9.70057 -23.30554,16.83006 -37.15466,21.12431 -7.79715,2.4177 -15.00511,3.66194 -22.983358,3.9674 -3.1781,0.12168 -3.22044,0.12162 -6.60541,-0.008 z M 46.448947,122.73741 c -0.177439,-0.19607 -0.191618,-1.76922 -0.191618,-21.2591 V 80.430962 l -0.281971,-0.28197 -0.28197,-0.28197 H 39.36994 c -6.170277,0 -6.329011,-0.006 -6.5532,-0.22976 -0.217499,-0.2175 -0.229753,-0.38292 -0.229753,-3.10167 0,-2.71876 0.01225,-2.88418 0.229753,-3.10168 0.227677,-0.22768 0.382923,-0.22975 17.174086,-0.22975 16.791162,0 16.946408,0.002 17.174085,0.22975 0.217446,0.21745 0.229753,0.38292 0.229753,3.08895 0,2.55424 -0.02144,2.88502 -0.201034,3.10127 -0.199482,0.2402 -0.250338,0.2423 -6.587838,0.2712 -5.21222,0.0238 -6.421726,0.0581 -6.576698,0.18679 -0.175332,0.14557 -0.190025,1.77097 -0.191588,21.194768 -0.0013,16.72662 -0.03146,21.09596 -0.146943,21.32431 l -0.145247,0.28719 -3.452375,0.0304 c -3.230471,0.0284 -3.464692,0.0168 -3.643994,-0.18135 z m 25.290934,0.0892 c -0.350482,-0.20449 -0.485902,-0.90394 -0.47734,-2.46547 0.0091,-1.66482 0.199606,-2.75634 0.743115,-4.2584 0.543829,-1.50295 1.155781,-2.5925 4.033607,-7.18161 3.19463,-5.0943 5.680961,-9.130108 12.237509,-19.863928 2.68226,-4.39116 4.97784,-8.12619 5.10129,-8.30005 0.12344,-0.17386 0.20794,-0.43233 0.18776,-0.57438 l -0.0367,-0.25828 -10.464887,-0.0574 c -8.637957,-0.0474 -10.498045,-0.085 -10.654825,-0.2151 -0.167687,-0.1392 -0.189939,-0.50496 -0.189939,-3.12219 0,-2.54186 0.02574,-2.99027 0.180521,-3.14505 0.162276,-0.16228 1.704625,-0.18052 15.260813,-0.18052 14.463645,0 15.088065,0.009 15.270405,0.21008 0.16502,0.18234 0.19012,0.55046 0.19012,2.78855 v 2.57846 l -0.49481,0.85879 c -0.27215,0.47234 -5.295068,8.69053 -11.162038,18.26264 -5.866968,9.572108 -10.690547,17.520148 -10.719063,17.662308 -0.03276,0.16332 0.0059,0.26412 0.105141,0.2738 0.08634,0.008 5.033769,0.0213 10.994272,0.0287 l 10.837288,0.0134 0.21961,0.2712 c 0.20382,0.25171 0.2196,0.48907 0.2196,3.30271 0,2.87835 -0.0116,3.04313 -0.22975,3.26126 -0.2275,0.22751 -0.38056,0.22972 -15.594526,0.22627 -9.790933,-0.002 -15.434578,-0.0442 -15.557193,-0.11577 z"
       id="path826"
       inkscape:connector-curvature="0" />
  </g>
</svg>
